<svg width="20" height="20" viewBox="0 0 20 20" fill="none" xmlns="http://www.w3.org/2000/svg">
<path d="M1.82183 0.655292C1.58975 0.655353 1.36295 0.724628 1.17044 0.854261C0.977926 0.983894 0.828449 1.16799 0.741115 1.38302C0.653782 1.59805 0.632561 1.83425 0.680166 2.0614C0.727771 2.28855 0.842038 2.49635 1.00836 2.65822L8.35016 10L1.00836 17.3418C0.896389 17.4493 0.806996 17.5781 0.745413 17.7206C0.683831 17.863 0.651298 18.0164 0.649719 18.1716C0.648139 18.3268 0.677546 18.4808 0.736217 18.6245C0.794888 18.7682 0.881643 18.8988 0.991401 19.0085C1.10116 19.1183 1.23172 19.205 1.37542 19.2637C1.51913 19.3224 1.6731 19.3518 1.82831 19.3502C1.98353 19.3486 2.13686 19.3161 2.27935 19.2545C2.42183 19.1929 2.5506 19.1035 2.6581 18.9916L9.9999 11.6498L17.3417 18.9916C17.4492 19.1035 17.578 19.1929 17.7204 19.2545C17.8629 19.3161 18.0163 19.3486 18.1715 19.3502C18.3267 19.3518 18.4807 19.3224 18.6244 19.2637C18.7681 19.205 18.8986 19.1183 19.0084 19.0085C19.1182 18.8988 19.2049 18.7682 19.2636 18.6245C19.3223 18.4808 19.3517 18.3268 19.3501 18.1716C19.3485 18.0164 19.316 17.863 19.2544 17.7206C19.1928 17.5781 19.1034 17.4493 18.9914 17.3418L11.6496 10L18.9914 2.65822C19.16 2.49435 19.2752 2.28337 19.3218 2.05293C19.3684 1.82249 19.3443 1.58334 19.2527 1.36682C19.1611 1.15031 19.0062 0.966523 18.8083 0.839556C18.6104 0.712588 18.3788 0.648362 18.1438 0.655292C17.8407 0.664324 17.553 0.790999 17.3417 1.00848L9.9999 8.35028L2.6581 1.00848C2.54938 0.896722 2.41936 0.807887 2.27572 0.747224C2.13209 0.686561 1.97775 0.655301 1.82183 0.655292Z" fill="#355957"/>
</svg>
