<svg width="21" height="18" viewBox="0 0 21 18" fill="none" xmlns="http://www.w3.org/2000/svg">
<path fill-rule="evenodd" clip-rule="evenodd" d="M10.0041 2.09065C11.7641 0.0306541 15.0241 -0.809346 17.6641 0.990654C19.0641 1.95065 19.9441 3.57065 20.0041 5.27065C20.1341 9.15065 16.7041 12.2607 11.4541 17.0207L11.3441 17.1207C10.5841 17.8207 9.41412 17.8207 8.65412 17.1307L8.55412 17.0407L8.49372 16.9858C3.27775 12.2468 -0.135343 9.14575 0.00411947 5.28065C0.0641195 3.57065 0.94412 1.95065 2.34412 0.990654C4.98412 -0.819346 8.24412 0.0306541 10.0041 2.09065ZM10.0041 15.6507L10.1041 15.5507C14.8641 11.2407 18.0041 8.39065 18.0041 5.50065C18.0041 3.50065 16.5041 2.00065 14.5041 2.00065C12.9641 2.00065 11.4641 2.99065 10.9441 4.36065H9.07412C8.54412 2.99065 7.04412 2.00065 5.50412 2.00065C3.50412 2.00065 2.00412 3.50065 2.00412 5.50065C2.00412 8.39065 5.14412 11.2407 9.90412 15.5507L10.0041 15.6507Z" fill="#F49A7E"/>
</svg>
