<svg width="29" height="27" viewBox="0 0 29 27" fill="none" xmlns="http://www.w3.org/2000/svg">
<path d="M14.518 6.57319C10.5182 6.57319 7.29015 9.66679 7.29015 13.5C7.29015 17.3332 10.5182 20.4268 14.518 20.4268C18.5178 20.4268 21.7458 17.3332 21.7458 13.5C21.7458 9.66679 18.5178 6.57319 14.518 6.57319ZM14.518 18.0019C11.9313 18.0019 9.82042 15.9789 9.82042 13.5C9.82042 11.0211 11.9313 8.99808 14.518 8.99808C17.1046 8.99808 19.2155 11.0211 19.2155 13.5C19.2155 15.9789 17.1046 18.0019 14.518 18.0019ZM22.0418 4.67516C21.108 4.67516 20.3538 5.3979 20.3538 6.29288C20.3538 7.18786 21.108 7.9106 22.0418 7.9106C22.9757 7.9106 23.7299 7.19124 23.7299 6.29288C23.7301 6.08036 23.6867 5.86988 23.6019 5.67349C23.5172 5.4771 23.3929 5.29866 23.2361 5.14839C23.0793 4.99811 22.8931 4.87896 22.6882 4.79776C22.4832 4.71656 22.2636 4.6749 22.0418 4.67516ZM28.6072 13.5C28.6072 11.6357 28.6248 9.78837 28.5155 7.92748C28.4063 5.76602 27.8918 3.84773 26.2425 2.26716C24.5897 0.683215 22.5916 0.19351 20.3362 0.0888138C18.3909 -0.0158819 16.4633 0.00100455 14.5215 0.00100455C12.5762 0.00100455 10.6486 -0.0158819 8.70682 0.0888138C6.45142 0.19351 4.44976 0.686593 2.8005 2.26716C1.14772 3.85111 0.636734 5.76602 0.527488 7.92748C0.418242 9.79174 0.435863 11.6391 0.435863 13.5C0.435863 15.3609 0.418242 17.2116 0.527488 19.0725C0.636734 21.234 1.15125 23.1523 2.8005 24.7328C4.45329 26.3168 6.45142 26.8065 8.70682 26.9112C10.6521 27.0159 12.5798 26.999 14.5215 26.999C16.4668 26.999 18.3944 27.0159 20.3362 26.9112C22.5916 26.8065 24.5933 26.3134 26.2425 24.7328C27.8953 23.1489 28.4063 21.234 28.5155 19.0725C28.6283 17.2116 28.6072 15.3643 28.6072 13.5ZM25.506 21.4636C25.2487 22.0783 24.9386 22.5376 24.4417 23.0104C23.9448 23.4866 23.4691 23.7838 22.8277 24.0304C20.9741 24.7362 16.5725 24.5775 14.518 24.5775C12.4635 24.5775 8.05839 24.7362 6.20474 24.0337C5.56336 23.7872 5.08409 23.49 4.59072 23.0138C4.09383 22.5376 3.78371 22.0817 3.52646 21.467C2.79346 19.6872 2.95909 15.469 2.95909 13.5C2.95909 11.531 2.79346 7.30944 3.52646 5.53299C3.78371 4.91833 4.09383 4.45902 4.59072 3.9862C5.08762 3.51338 5.56336 3.2128 6.20474 2.96626C8.05839 2.26378 12.4635 2.42252 14.518 2.42252C16.5725 2.42252 20.9776 2.26378 22.8312 2.96626C23.4726 3.2128 23.9519 3.51 24.4452 3.9862C24.9421 4.46239 25.2523 4.91833 25.5095 5.53299C26.2425 7.30944 26.0769 11.531 26.0769 13.5C26.0769 15.469 26.2425 19.6872 25.506 21.4636Z" fill="#355957"/>
</svg>
