<svg width="22" height="18" viewBox="0 0 22 18" fill="none" xmlns="http://www.w3.org/2000/svg">
<path fill-rule="evenodd" clip-rule="evenodd" d="M14 0H12V2H14V0ZM22 8H20V10H22V8ZM22 12H20V14H22V12ZM22 16H20V18C21 18 22 17 22 16ZM20 4H22V6H20V4ZM20 2V0C21 0 22 1 22 2H20ZM0 4H2V6H0V4ZM18 0H16V2H18V0ZM16 16H18V18H16V16ZM0 2C0 1 1 0 2 0V2H0ZM8 0H10V2H8V0ZM6 0H4V2H6V0ZM0 8V16C0 17.1 0.9 18 2 18H14V10C14 8.9 13.1 8 12 8H0ZM4.12 13.28L2.63 15.19C2.37 15.52 2.61 16 3.02 16.01H11C11.41 16.01 11.65 15.54 11.4 15.21L9.18 12.25C8.99 11.98 8.59 11.98 8.39 12.24L6.29 14.94L4.9 13.27C4.69 13.02 4.32 13.03 4.12 13.28Z" fill="#2A3D42"/>
</svg>
