<svg width="26" height="26" viewBox="0 0 26 26" fill="none" xmlns="http://www.w3.org/2000/svg">
<path d="M23.8804 6.12C20.0404 0.2 12.2004 -1.56 6.12038 2.12C0.20038 5.8 -1.71962 13.8 2.12038 19.72L2.44038 20.2L1.16038 25L5.96038 23.72L6.44038 24.04C8.52038 25.16 10.7604 25.8 13.0004 25.8C15.4004 25.8 17.8004 25.16 19.8804 23.88C25.8004 20.04 27.5604 12.2 23.8804 6.12ZM20.5204 18.44C19.8804 19.4 19.0804 20.04 17.9604 20.2C17.3204 20.2 16.5204 20.52 13.3204 19.24C10.6004 17.96 8.36038 15.88 6.76038 13.48C5.80038 12.36 5.32038 10.92 5.16038 9.48C5.16038 8.2 5.64038 7.08 6.44038 6.28C6.76038 5.96 7.08038 5.8 7.40038 5.8H8.20038C8.52038 5.8 8.84038 5.8 9.00038 6.44C9.32038 7.24 10.1204 9.16 10.1204 9.32C10.2804 9.48 10.2804 9.8 10.1204 9.96C10.2804 10.28 10.1204 10.6 9.96038 10.76C9.80038 10.92 9.64038 11.24 9.48038 11.4C9.16038 11.56 9.00038 11.88 9.16038 12.2C9.80038 13.16 10.6004 14.12 11.4004 14.92C12.3604 15.72 13.3204 16.36 14.4404 16.84C14.7604 17 15.0804 17 15.2404 16.68C15.4004 16.36 16.2004 15.56 16.5204 15.24C16.8404 14.92 17.0004 14.92 17.3204 15.08L19.8804 16.36C20.2004 16.52 20.5204 16.68 20.6804 16.84C20.8404 17.32 20.8404 17.96 20.5204 18.44Z" fill="#355957"/>
</svg>
